<svg id="Layer_1" data-name="Layer 1" xmlns="http://www.w3.org/2000/svg" viewBox="0 0 200.056 477.779">
  <defs>
    <style>
      .cls-1 {
        fill: #caf0ff;
      }

      .cls-2 {
        fill: #e0f4ff;
      }

      .cls-3 {
        fill: #64e1dc;
      }

      .cls-4 {
        fill: #00c8c8;
      }

      .cls-5 {
        fill: #b9e2ef;
      }

      .cls-6 {
        fill: #b1d7e0;
      }
    </style>
  </defs>
  <title>90891769-baab-497b-a1ec-e3bcf96cb4c5</title>
  <path class="cls-1" d="M157.188,306.307H42.873A42.808,42.808,0,0,0,.005,349.175v85.736a42.81,42.81,0,0,0,42.868,42.868H157.188a42.81,42.81,0,0,0,42.868-42.868V349.175A42.808,42.808,0,0,0,157.188,306.307Z"/>
  <path class="cls-2" d="M157.182,48.147H42.868L0,114.734V177.7a42.81,42.81,0,0,0,42.868,42.868H157.182A42.81,42.81,0,0,0,200.05,177.7v-62.97Z"/>
  <path class="cls-1" d="M200.05,114.734V177.7a42.81,42.81,0,0,1-42.868,42.868H100.025V48.147h57.157Z"/>
  <rect class="cls-2" x="42.87" width="114.31" height="48.15"/>
  <rect class="cls-1" x="100.03" width="57.15" height="48.15"/>
  <path class="cls-3" d="M157.188,48.147V42.424H42.873v5.723"/>
  <path class="cls-4" d="M100.03,48.147V42.424h57.157v5.723"/>
  <path class="cls-1" d="M200.056,220.572V249.15a13.812,13.812,0,0,1-14.289,14.289L100.03,292.018,14.294,263.44A13.812,13.812,0,0,1,.005,249.15V220.572a13.812,13.812,0,0,1,14.289-14.289H185.766A13.812,13.812,0,0,1,200.056,220.572Z"/>
  <path class="cls-5" d="M200.056,220.572V249.15a13.812,13.812,0,0,1-14.289,14.289L100.03,292.018V206.282h85.736A13.812,13.812,0,0,1,200.056,220.572Z"/>
  <g>
    <path class="cls-5" d="M200.056,349.175v85.736a42.81,42.81,0,0,1-42.868,42.868H100.03V306.307h57.157A42.808,42.808,0,0,1,200.056,349.175Z"/>
    <path class="cls-5" d="M200.056,277.729v28.579A14.15,14.15,0,0,1,185.766,320.6H14.294A14.15,14.15,0,0,1,.005,306.307V277.729A14.148,14.148,0,0,1,14.294,263.44H185.766A14.148,14.148,0,0,1,200.056,277.729Z"/>
  </g>
  <path class="cls-6" d="M200.056,277.729v28.579A14.15,14.15,0,0,1,185.766,320.6H100.03V263.44h85.736A14.148,14.148,0,0,1,200.056,277.729Z"/>
</svg>
